<svg width="1080" height="652" viewBox="0 0 1080 652" fill="none" xmlns="http://www.w3.org/2000/svg">
<path d="M323.97 383.66C346.06 372.43 364.7 359.06 385.97 350.56C386.94 350.17 387.69 349.06 388.66 348.84C393.51 347.77 400.6 345.87 402.29 350.28C404.02 354.78 397.74 356.91 392.98 358.96C372.16 367.93 352.62 379.45 333.24 391.15C327.83 394.42 325.9 398.79 329.29 406.24C333.56 415.63 334.19 426.47 337.64 436.49C346.43 462.05 356.44 487.04 369.62 510.64C371.24 513.55 371.01 516.77 372.99 519.45C376.22 523.81 372.34 526.16 369.45 527.73C365.11 530.09 364.94 526.53 363.46 523.34C352.89 500.55 341.76 478.03 333.33 454.31C328.11 439.61 323.37 424.79 320.1 409.53C318.97 404.28 317.85 400.99 311.13 405.26C300.51 411.99 293.05 419.14 288.52 432.3C276.05 468.56 265.81 505.71 249.17 540.5C245.84 547.46 244.42 555.34 238.76 561.14C236.82 563.13 235.2 566.39 231.84 563.9C228.54 561.46 227.76 558.15 230.38 554.53C238.54 543.23 241.86 529.6 248.08 517.47C257.45 499.19 260.01 478.72 268.78 460.3C273.51 450.37 276.05 439.4 280.4 426.44C271.64 431.49 264.6 435 258.21 439.43C254.09 442.28 250.14 444.94 245.11 445.34C242.05 445.59 238.2 446.75 236.84 442.61C235.53 438.64 239.14 436.52 241.64 435.21C249.34 431.2 257.1 426.97 265.03 423.76C281.03 417.28 286.66 405.34 290.85 389.59C298.31 361.61 304.86 333.68 305.43 304.65C305.54 298.96 309.37 298.08 313.18 297.85C318.03 297.56 316.35 302 316.14 304.2C314.18 324.73 321.47 344.6 320.28 365.06C319.92 371.29 325.62 375.98 323.96 383.66H323.97Z" fill="black"/>
<path d="M417.36 251.11C404.21 261.66 391.43 271.99 378.55 282.19C373.03 286.56 367.07 290.38 361.72 294.93C358.19 297.93 356.46 295.13 354.68 293.37C352.4 291.12 351.83 288.31 355.2 286.25C369.66 277.4 382.08 265.78 395.41 255.5C410.99 243.49 426.42 231.12 441.58 218.5C457.29 205.41 473.41 192.81 489.32 179.95C492.56 177.33 494.85 177.91 497.23 181.28C499.74 184.84 499.84 186.41 495.69 189.54C474.04 205.86 452.88 222.83 431.59 239.63C427.7 242.7 426.46 244.81 428.68 251.25C431.52 259.49 433.59 269.02 433.7 278.22C433.97 301.13 436.04 324.36 432.91 346.84C430.59 363.51 430.28 380.43 426.76 397.23C422.34 418.33 420.45 440.44 419.3 462.26C418.6 475.66 416.08 488.51 411.64 501.1C410.85 503.33 411.15 506.02 411.3 508.48C411.58 513.01 409.6 517.08 405.31 516.43C401.53 515.86 399 511.36 400.67 507.05C403.68 499.25 403.15 490.93 404.84 483.1C410.67 456.06 414.41 428.9 416.34 401.27C418.24 374.05 423.28 347.12 423.11 319.62C422.97 296.96 424.34 274.33 417.36 251.12V251.11Z" fill="black"/>
<path d="M488.37 394.44C485.25 373.57 489.79 352.95 493.07 332.81C495.77 316.22 496.08 298.98 501.83 282.95C503.26 278.96 500.06 278.55 498.88 277.25C492.7 270.49 486.19 264.01 479.46 257.78C474.87 253.53 472.12 248.42 470.54 242.57C469.97 240.46 467.41 237.68 471.04 236.2C473.34 235.26 475.51 236.01 477.42 238.43C497.32 263.7 520.15 285.39 550.07 298.84C553.66 300.45 556.71 300.36 560.03 300.79C564.34 301.35 564.94 304.36 565.14 307.73C565.43 312.53 561.69 311.37 559.13 311.46C550.97 311.77 543.92 308.04 537.06 304.43C530.62 301.04 524.5 296.94 518.65 292.6C516.23 290.81 514.45 287.28 511.13 288.7C507.13 290.4 505.99 294.37 506.31 298.63C507.06 308.7 504.28 318.61 504.1 328.39C503.76 346.21 500.78 363.88 498.42 381.12C491.72 430.05 497.91 478.89 495.92 527.71C495.22 544.9 496.61 563.42 502.66 580.59C504.24 585.07 504.56 590.65 498.73 592.24C492.3 593.99 493.47 588.22 492.1 584.34C486.43 568.33 489.63 551.78 488.19 535.55C485.85 509.18 484.81 482.83 484.85 456.35C484.88 435.6 490.89 415.24 488.35 394.41L488.37 394.44Z" fill="black"/>
<path d="M755.21 152.85C759.39 153.16 758.82 156.02 759.13 158.43C759.6 162.16 757.98 163.94 754.32 163.44C751.81 163.1 748.92 162.25 749.37 159C749.84 155.65 752.43 153.74 755.22 152.84L755.21 152.85Z" fill="black"/>
<path d="M684.21 109.27C687.38 108.97 690.03 109.45 689.58 113.53C689.27 116.35 688.71 119.7 685.12 119.6C681.49 119.5 680.32 115.86 679.6 113.07C678.71 109.62 681.58 109.25 684.21 109.27Z" fill="black"/>
<path d="M729.45 152.06C730.01 155.9 727.31 155.41 724.22 155.38C721.75 155.36 719.27 156.6 719.04 152.67C718.82 148.75 721.76 146.62 724.52 146C727.89 145.24 729.02 148.46 729.45 152.06Z" fill="black"/>
<path d="M727.82 132.58C727.17 129.65 727.04 126.72 731.46 127.54C734.29 128.06 737.05 129.89 737.01 132.87C736.96 136.86 733.51 137.6 730.17 137.66C725.84 137.75 727.16 135.02 727.82 132.57V132.58Z" fill="black"/>
<path d="M764.84 132.09C763.6 135.01 762.63 137.77 758.97 137.62C755.89 137.49 755.91 135.43 756.13 133.16C756.35 130.92 754.81 127.95 758.72 127.35C762.63 126.75 762.98 130.35 764.85 132.08L764.84 132.09Z" fill="black"/>
<path d="M704.29 136.01C704.47 139.13 704.2 141.9 699.97 141.64C696.82 141.45 693.38 140.07 694.23 136.93C694.85 134.62 696.83 131.16 700.64 130.95C704.56 130.73 704.18 133.54 704.29 136.01Z" fill="black"/>
<path d="M763.53 183.74C763.79 187.77 761.97 188.75 759.09 188.82C754.9 188.91 754.81 185.79 754.94 183.13C755.08 180.43 755.61 177.41 759.76 178.06C763.8 178.69 762.47 182.31 763.53 183.75V183.74Z" fill="black"/>
<path d="M744.57 244.23C744.79 248.17 744.02 250.26 740.61 249.98C738 249.76 735.35 249.01 735.59 245.87C735.82 242.91 737.77 240.68 740.97 240.36C744.73 239.99 744.37 242.97 744.57 244.23Z" fill="black"/>
<path d="M752.75 203.8C754.75 204.74 758.87 202.92 759 207.19C759.11 210.68 755.6 212.49 753.16 213.15C751.01 213.73 749.05 210.84 748.73 208.22C748.42 205.61 748.66 203.09 752.75 203.81V203.8Z" fill="black"/>
<path d="M716.86 206.22C713.14 206.54 712.38 204.54 712.5 201.69C712.59 199.42 711.36 196.57 715.16 196.07C718.71 195.61 720.61 198.81 721.24 200.73C722.1 203.34 719.04 205.13 716.86 206.21V206.22Z" fill="black"/>
<path d="M736.41 183.33C734.23 185.07 734.36 189.5 729.86 188.73C726.09 188.09 727.31 185.53 727.23 183.19C727.11 179.72 728.07 177.98 731.96 178.51C734.92 178.92 736.28 180.39 736.41 183.32V183.33Z" fill="black"/>
<path d="M660.23 126.89C657.39 126.89 656.61 125.38 657.13 122.8C657.67 120.09 657.61 116.54 661.42 116.76C664.29 116.93 664.79 120.01 664.87 122.41C664.97 125.35 663.11 126.78 660.23 126.89Z" fill="black"/>
<path d="M714.99 115.71C715.81 119.08 714.09 119.98 711.08 120.01C707.23 120.04 706.25 116.27 706.12 114.47C705.97 112.39 707.83 109.23 711.51 109.45C716.13 109.72 714.04 113.52 714.99 115.72V115.71Z" fill="black"/>
<path d="M748.2 123.62C743.06 123.14 745.58 119.52 745.13 117.21C744.65 114.77 745.36 113.17 748.19 113.08C752.94 112.92 751.4 116.47 751.76 118.95C752.19 121.98 751.13 123.65 748.2 123.62Z" fill="black"/>
<path d="M744.45 207.73C744.64 211.11 741.51 212.01 739.64 212.11C737.64 212.22 734.78 210.74 734.77 207.81C734.76 204.82 737.08 203.57 739.7 203.49C742.37 203.41 744.52 204.46 744.45 207.72V207.73Z" fill="black"/>
<path d="M779.71 98.33C781.51 102.4 782.19 105.73 778.99 108.26C777.74 109.25 775.44 109.1 774.78 106.83C773.49 102.4 776.89 100.9 779.71 98.33Z" fill="black"/>
<path fill-rule="evenodd" clip-rule="evenodd" d="M765.508 89.1564C763.993 88.7714 762.237 88.9419 760.48 89.1124C756.314 89.5168 752.146 89.9214 751.2 82.92C750.198 83.5252 748.832 83.3864 747.466 83.2475C744.905 82.9871 742.343 82.7266 742.18 87.37C741.95 93.78 740.06 95.98 733.25 92.49C726.32 88.93 721.05 91.93 719.11 99.66C717.85 104.7 715.82 107.14 711.72 101.94C708.62 98 705.68 98.92 701.43 100.28C680.09 107.1 658.69 113.88 637 119.44C630.13 121.2 621.98 121.93 614.97 117.97C608.661 114.409 608.293 117.489 607.672 122.698L607.63 123.05C607.03 128.094 606.79 133.175 606.55 138.257C606.07 148.419 605.59 158.584 602.23 168.45C595.98 186.83 589.6 205.1 578.11 221.03C577.986 221.203 577.854 221.407 577.713 221.627L577.712 221.628L577.709 221.633L577.708 221.634C576.776 223.079 575.427 225.17 573.2 223.22C572.985 223.031 572.749 222.84 572.506 222.643C571.13 221.529 569.523 220.228 570.22 218.01C570.461 217.244 570.687 216.464 570.914 215.682C571.682 213.029 572.459 210.347 573.88 208.1C585.89 189.05 592.63 168.62 595.35 146.06C595.681 143.315 596.086 140.572 596.491 137.825L596.492 137.82L596.492 137.819C597.471 131.19 598.452 124.537 598.41 117.78C598.33 105.63 602.25 100.92 612.44 106.04C625.337 112.512 636.994 108.754 647.941 105.224C648.579 105.018 649.216 104.812 649.85 104.61C657.671 102.118 665.601 100.039 673.53 97.9595C684.882 94.9826 696.232 92.0062 707.26 87.82C747.9 72.4 787.85 55.69 824.34 31.72C824.479 31.6288 824.615 31.5387 824.748 31.4505L824.759 31.4434L824.764 31.4403L824.792 31.4211L824.793 31.4206C826.558 30.2479 827.777 29.4377 829.78 31.09C833.83 34.43 834.09 39.47 832.03 42.82C830.016 46.0879 828.413 49.5814 826.822 53.0466L826.822 53.0471C825.065 56.877 823.323 60.6723 821.06 64.09C812.752 76.6133 809.546 90.6178 806.339 104.625C805.347 108.961 804.354 113.297 803.21 117.59C798.27 136.12 793.38 154.68 789.18 173.38C786.652 184.647 784.468 195.995 782.283 207.342L782.283 207.343C780.761 215.251 779.239 223.159 777.6 231.04C777.145 233.228 776.707 235.423 776.268 237.619C774.439 246.778 772.605 255.961 769.58 264.72C767.14 271.765 765.97 279.042 764.8 286.319L764.8 286.32L764.8 286.321L764.799 286.322L764.799 286.323C763.576 293.929 762.353 301.537 759.68 308.88C753.769 325.151 749.681 341.974 745.595 358.793L745.595 358.794L745.594 358.795L745.594 358.795L745.594 358.796C743.48 367.497 741.366 376.198 739 384.82C737.148 391.568 735.082 398.261 733.014 404.96L733.014 404.961C728.929 418.197 724.837 431.453 722.38 445.19C720.885 453.55 718.187 461.696 715.482 469.862L715.482 469.863C713.81 474.913 712.135 479.97 710.74 485.09C709.562 489.424 708.603 493.813 707.644 498.205C705.853 506.409 704.061 514.618 700.83 522.48C697.71 530.08 695.91 538.23 694.38 546.52C698.14 544.32 700.09 541.31 702.01 537.55C719.542 503.25 739.99 470.675 760.445 438.089L760.453 438.077C764.368 431.839 768.284 425.601 772.18 419.35C782.654 402.542 793.503 385.99 804.353 369.437C811.197 358.996 818.04 348.555 824.79 338.05C830.1 329.782 835.882 321.817 841.665 313.85C846.402 307.323 851.14 300.796 855.62 294.1C868.717 274.538 884.495 257.253 900.271 239.969C909.827 229.501 919.381 219.033 928.34 208.06C934.06 201.05 932.91 193.61 926.18 189.26C905.32 175.76 882.42 167.64 858.16 162.94C858.064 162.922 857.966 162.904 857.866 162.888C857.802 162.877 857.738 162.866 857.673 162.856L857.505 162.83L857.503 162.829C856.604 162.688 855.638 162.535 855.15 162C853.935 160.663 852.032 159.788 850.138 158.917C846.292 157.149 842.48 155.397 844.53 149.83C846.899 143.379 851.673 144.954 856.294 146.479C857.661 146.93 859.016 147.377 860.29 147.61C861.045 147.749 861.804 147.938 862.564 148.128C864.271 148.555 865.979 148.982 867.64 148.83C871.621 148.463 875.603 148.104 879.586 147.745C897.964 146.088 916.351 144.431 934.63 141.99C940.51 141.21 942.05 133.83 942.65 128.67C945.72 102.17 947.25 75.59 946.15 48.85C946.065 46.7835 945.249 44.7921 944.436 42.809C942.952 39.1877 941.479 35.5938 944.49 31.62C944.959 30.9994 945.264 30.213 945.57 29.426L945.57 29.4255C946.293 27.5625 947.017 25.6966 949.92 26.02C953.285 26.3964 953.221 28.5692 953.159 30.6954C953.139 31.3937 953.119 32.087 953.22 32.71C953.66 35.4121 954.094 38.1147 954.528 40.8169C957.809 61.2457 961.085 81.6501 967.1 101.61C968.317 105.642 969.301 109.738 970.289 113.85L970.289 113.85L970.289 113.851L970.289 113.851L970.29 113.855C971.484 118.827 972.685 123.824 974.31 128.76C977.04 137.04 983.16 136.01 986.56 134.28C992.977 131.016 999.874 129.366 1006.76 127.719C1013.58 126.086 1020.39 124.456 1026.71 121.26C1030.06 119.56 1034.5 118.32 1037.15 122.33C1040.18 126.91 1037.23 130.23 1033.45 132.85C1030.08 135.187 1026.69 137.491 1023.3 139.795C1015.84 144.864 1008.38 149.932 1001.17 155.35L1000.59 155.784L1000.06 156.182C988.974 164.494 987.17 165.847 993.35 180.23C998.815 192.961 1003.66 205.964 1008.5 218.964C1014.33 234.607 1020.16 250.245 1027.06 265.4C1029.41 270.561 1031.5 275.856 1033.59 281.158L1033.59 281.162L1033.59 281.163C1038.38 293.313 1043.19 305.503 1051.18 316.23C1054.29 320.4 1059.5 328.32 1053.1 332.12C1047.84 335.24 1042.27 329.33 1040.14 323.13C1035.11 308.51 1028.05 294.84 1018.74 282.64C1015.82 278.819 1012.93 274.978 1010.03 271.137C996.181 252.762 982.319 234.372 966 218.02C960.47 212.48 956.06 208.49 951.71 220.67C948.15 230.641 943.558 240.233 938.963 249.831C935.143 257.81 931.322 265.793 928.09 274C925.737 279.973 924.54 286.39 923.341 292.821C922.543 297.103 921.743 301.391 920.6 305.56C917.989 315.088 915.209 324.572 912.43 334.055L912.429 334.059C909.044 345.605 905.66 357.152 902.58 368.78C899.186 381.619 896.359 394.603 893.532 407.586L893.524 407.624C892.713 411.344 891.903 415.064 891.08 418.78C890.229 422.616 888.967 426.348 887.704 430.083C885.345 437.056 882.984 444.039 883.29 451.73C883.42 455.11 879.47 455.64 876.48 454.95C872.15 453.94 871.82 449.73 872.98 447.19C875.591 441.483 875.714 435.506 875.835 429.574C875.917 425.579 875.999 421.606 876.84 417.75C882.63 391.16 889.26 364.73 898.02 338.93C902.737 325.045 906.884 310.978 911.029 296.915L911.03 296.914L911.03 296.913L911.03 296.912L911.031 296.911L911.033 296.905C913.768 287.627 916.503 278.351 919.4 269.13C922.172 260.314 923.439 250.679 924.718 240.958C925.382 235.914 926.049 230.847 926.93 225.86C920.265 233.668 913.489 241.284 906.738 248.872L906.736 248.875L906.734 248.876C897.127 259.674 887.57 270.417 878.45 281.58C864.49 298.666 852.076 316.734 839.667 334.792C836.041 340.07 832.414 345.348 828.75 350.6C816.119 368.697 804.34 387.39 792.561 406.082L792.56 406.084L792.559 406.085L792.558 406.086L792.557 406.089L792.553 406.095L792.549 406.101L792.545 406.107L792.542 406.113C787.345 414.359 782.149 422.605 776.88 430.8C753.38 467.35 730.15 504.06 710.2 542.71C700.02 562.42 691.29 582.67 686.03 604.35C685.062 608.337 683.399 612.15 681.734 615.968C680.818 618.067 679.902 620.168 679.1 622.3C678.06 625.08 676.22 626.86 673.49 625.53C671.16 624.4 669.24 622.77 669.96 618.95C670.237 617.48 670.513 616.009 670.789 614.54L670.79 614.535L670.79 614.533L670.791 614.532L670.791 614.53C675.166 591.246 679.523 568.058 685.26 544.94C689.249 528.862 693.545 512.835 697.841 496.811C701.557 482.946 705.274 469.083 708.79 455.19C714.62 432.12 720.6 408.75 729.01 386.14C732.141 377.717 734.058 368.802 735.981 359.851C737.504 352.767 739.032 345.661 741.17 338.76C743.776 330.349 745.79 321.775 747.804 313.201C750.806 300.42 753.808 287.64 758.77 275.4C760.51 271.11 760.9 266.88 755.44 264.81C753.14 263.94 751.67 262.77 752.17 260.16C752.696 257.445 754.885 257.389 756.928 257.337C757.023 257.335 757.117 257.333 757.21 257.33C763.195 257.154 763.012 253.563 762.834 250.068V250.067V250.067V250.066V250.066C762.78 248.994 762.726 247.932 762.85 246.98C763.497 242.037 760.828 242.269 758.037 242.512C757.293 242.576 756.541 242.642 755.84 242.61C755.316 242.587 754.733 242.632 754.135 242.678C751.848 242.853 749.348 243.044 749.11 239.54C748.819 235.258 752.517 235.528 755.049 235.713L755.29 235.73C757.085 235.854 758.127 234.802 759.146 233.773C760.103 232.808 761.039 231.862 762.56 231.93C765.83 232.08 767.19 229.98 766.94 227.18C766.724 224.724 764.896 224.764 763.165 224.801C762.731 224.811 762.304 224.82 761.91 224.79C758.75 224.55 756.24 223.59 755.97 219.94C755.737 216.721 757.76 216.436 759.938 216.13C760.284 216.081 760.634 216.032 760.98 215.97C763.6 215.5 764.28 213.38 763.7 211.05C763.665 210.91 763.628 210.77 763.591 210.629C763.542 210.446 763.491 210.263 763.44 210.079L763.44 210.078L763.44 210.077C762.746 207.562 762.04 205.006 765.59 203.97C768.422 203.138 769.489 205.098 770.866 207.627C771.458 208.715 772.108 209.908 772.98 211.03C773.168 209.352 773.473 207.74 773.765 206.204C774.902 200.207 775.819 195.371 768.63 192.29C766.76 191.49 766.2 189.53 766.41 187.76C766.707 185.255 768.634 185.119 770.536 184.986C770.813 184.966 771.089 184.947 771.36 184.92C771.844 184.874 772.358 184.884 772.875 184.894C774.826 184.932 776.805 184.971 777.24 181.99C777.673 179.046 775.947 178.516 773.996 177.918C773.561 177.784 773.115 177.648 772.68 177.48C769.997 176.447 770.275 174.21 770.541 172.063V172.062V172.061V172.061V172.06C770.633 171.318 770.723 170.587 770.69 169.92C770.54 166.78 773.36 166.87 775.34 167.07C780.897 167.65 781.555 164.297 782.225 160.885C782.639 158.771 783.059 156.636 784.65 155.4C786.2 154.2 782.53 152.15 780.84 151.3C777.688 149.719 777.638 152.102 777.599 153.94V153.943C777.594 154.162 777.59 154.374 777.58 154.57C777.31 160.17 773.54 159.96 769.99 158.82C765.76 157.46 765.61 154.82 768.75 151.66C770.638 149.753 769.249 147.945 768.009 146.33L767.888 146.172L767.81 146.07C765.33 142.83 768.14 140.55 770.11 140.69C772.257 140.837 774.403 140.306 776.557 139.773C780.131 138.889 783.727 138 787.39 140.19C786.403 139.272 785.772 137.707 785.141 136.139C783.578 132.259 782.007 128.359 775 134.17C773.46 135.45 770.9 133.77 770.68 131C770.604 130.051 770.563 129.096 770.522 128.142L770.522 128.14L770.522 128.137L770.521 128.135L770.521 128.132V128.131C770.439 126.214 770.357 124.3 769.99 122.44C769.816 121.56 769.081 120.715 768.35 119.875C766.773 118.063 765.213 116.271 769.34 114.18C774.72 111.46 777.9 114.15 778.78 120.01C780.226 118.837 780.863 116.97 781.474 115.179C782.613 111.843 783.66 108.773 789.68 110.96C792.74 112.07 791.38 107.46 790.15 107.01C785.071 105.129 785.203 101.027 785.337 96.8941C785.461 93.0287 785.587 89.1365 781.45 87.01C780.19 86.36 782.48 83.35 785.09 83.41C786.022 83.4317 786.954 83.4472 787.886 83.4628C791.256 83.5191 794.625 83.5753 797.97 83.92C798.544 83.979 799.147 84.2291 799.73 84.4704C801.321 85.1293 802.753 85.7226 802.98 82.18C803.19 78.85 802.01 75.66 798.55 76.46C789.88 78.47 787.37 73.96 786.75 65.81C786.482 66.716 786.256 67.6019 786.036 68.459L786.035 68.4632C784.863 73.0441 783.902 76.803 777.99 78.42C774.172 79.4618 774.185 82.8696 774.198 86.3035C774.208 88.9673 774.218 91.6468 772.44 93.25C771.413 94.1757 771.116 95.8964 770.827 97.5648C770.318 100.51 769.838 103.293 765.42 101.25C759.097 98.3333 762.482 93.2415 765.589 89.2036C765.623 89.2067 765.67 89.2 765.67 89.2C765.646 89.1543 765.621 89.1086 765.597 89.063C765.664 88.7089 765.712 88.3399 765.759 87.9704C765.889 86.9626 766.02 85.9513 766.55 85.23C766.907 84.7411 767.444 84.3205 767.969 83.9104C769.471 82.7347 770.864 81.6449 767.58 79.28C767.257 79.0478 766.937 78.7996 766.618 78.5523C764.862 77.1913 763.144 75.8598 761.24 77.4C759.222 79.0426 760.387 80.4545 761.538 81.8489C762.013 82.4239 762.485 82.996 762.73 83.58C763.294 84.9147 764.005 86.1878 764.716 87.4613C765.013 87.9936 765.31 88.526 765.597 89.063C765.59 89.1025 765.582 89.1417 765.574 89.1808L765.558 89.1753C765.541 89.1691 765.524 89.1628 765.508 89.1564ZM974.941 160.682C974.956 160.28 974.973 159.804 975.04 159.26C973.333 158.425 972.846 156.542 972.349 154.621C971.673 152.008 970.979 149.323 967.17 149.11C966.781 149.088 966.392 149.064 966.001 149.041C959.783 148.663 953.423 148.276 949.33 155.22C946.344 160.297 945.909 165.866 945.474 171.438C945.112 176.071 944.75 180.706 942.92 185.06C941.6 188.19 945.51 190.07 947.37 188.4C954.985 181.539 962.271 174.33 969.558 167.119L969.559 167.119L969.561 167.117C971.259 165.437 972.957 163.756 974.66 162.08C974.899 161.841 974.916 161.367 974.941 160.682ZM888.19 156.06C890.273 156.06 892.322 156.065 894.347 156.07C898.731 156.081 903.005 156.091 907.28 156.05C908.457 156.037 909.633 156.064 910.806 156.091H910.807H910.808C915.939 156.207 921.014 156.323 925.93 153.1C928.92 151.14 934.16 150.75 937.12 153.39C939.852 155.836 938.189 159.596 936.781 162.782C936.71 162.943 936.639 163.102 936.57 163.26C936.228 164.049 935.96 164.877 935.694 165.697L935.688 165.715L935.681 165.736C935.624 165.912 935.567 166.086 935.51 166.26C934.918 168.05 935.045 170.164 935.17 172.241C935.384 175.817 935.592 179.286 932.12 180.81C928.625 182.344 925.975 179.652 923.304 176.938C921.97 175.583 920.632 174.222 919.18 173.38C911.13 168.71 902.94 165.2 894.05 163.02C891.01 162.27 888.92 160.94 888.18 156.06H888.19ZM954.925 99.2957L954.92 99.28L954.93 99.27L954.925 99.2957ZM954.925 99.2957C955.888 102.219 956.942 105.096 957.991 107.96L957.993 107.964C960.863 115.802 963.698 123.542 964.54 131.85C965.27 139.06 961.45 141.27 955.08 141.44C950.85 141.55 948.5 139.48 949.97 135.72C952.766 128.574 953.145 121.175 953.526 113.735C953.773 108.919 954.02 104.087 954.925 99.2957ZM1001.56 143.16C999.354 144.704 997.298 146.141 995.327 147.519L995.323 147.522C991.525 150.178 988.043 152.613 984.41 155.16C981.79 153.28 979.18 148.44 981.38 147.02L981.407 147.003C986.691 143.587 992.755 139.666 1001.56 143.16Z" fill="black"/>
<path d="M152.68 503.37C153.46 499.85 154.38 496.36 159.04 496.6C162.42 496.78 162.43 499.54 162.72 502C163.52 508.8 157.67 506 154.79 507.5L152.68 503.37Z" fill="black"/>
<path fill-rule="evenodd" clip-rule="evenodd" d="M174.475 226.774C165.791 243.782 157.094 260.816 154.389 279.949C149.13 272.126 148.887 263.57 148.646 255.063C148.521 250.666 148.396 246.282 147.58 242.02C145.989 233.688 145.339 225.298 144.688 216.907V216.907C144.046 208.631 143.404 200.353 141.86 192.13C141.221 188.733 140.552 185.329 139.883 181.921C137.452 169.546 135.01 157.112 133.92 144.74C132.831 132.356 129.422 120.722 126.021 109.113L126.021 109.113C124.33 103.342 122.641 97.5773 121.24 91.73C120.857 90.1235 120.584 88.4343 120.305 86.7155L120.305 86.7154C119.588 82.2823 118.838 77.6529 116.1 73.74C113.5 70.02 109.96 67.71 106.23 69.87C103.734 71.3201 104.678 73.504 105.645 75.7421C106.019 76.6064 106.396 77.4787 106.58 78.32C106.978 80.1352 108.082 81.4757 109.188 82.8193C110.666 84.6142 112.149 86.4148 111.96 89.36C111.536 96.0149 113.489 102.345 115.438 108.665L115.438 108.665C116.204 111.149 116.969 113.631 117.59 116.13C118.522 119.896 119.823 123.631 121.121 127.356L121.121 127.356C123.414 133.939 125.696 140.492 125.92 147.14C126.172 154.612 127.231 161.95 128.288 169.279L128.288 169.279C129.115 175.014 129.941 180.744 130.38 186.53C130.494 188.041 130.603 189.561 130.712 191.087L130.713 191.095C131.386 200.517 132.075 210.159 134.2 219.15C137.99 235.19 139.53 251.34 140.96 267.53C141.159 269.789 141.362 272.049 141.565 274.31C143.283 293.439 145.005 312.605 144.12 331.86C143.91 336.37 147.28 338.89 149.77 340.03C152.569 341.315 153.444 339.271 154.338 337.183C154.766 336.182 155.199 335.171 155.85 334.51C159.209 331.099 159.12 327.245 159.03 323.312V323.312C159.015 322.703 159.001 322.092 159 321.48C158.95 305.23 159.91 289.49 165.62 273.66C169.568 262.714 174.535 252.335 179.498 241.964L179.499 241.963C182.167 236.389 184.833 230.816 187.34 225.16C194.999 207.874 203.698 191.12 212.397 174.367L212.397 174.367C219.792 160.126 227.186 145.885 233.94 131.32C237.48 123.681 241.883 116.431 246.498 108.832C248.661 105.27 250.871 101.631 253.06 97.84C254.33 103.652 252.013 107.686 249.78 111.574C248.513 113.78 247.273 115.939 246.73 118.35C243.52 132.59 240.07 147.07 235.13 160.6C227.928 180.324 223.716 200.826 219.571 221.004C219.181 222.903 218.791 224.798 218.4 226.69C212.78 253.87 210.83 282.22 210.78 310.33C210.77 319.29 208.34 327.41 201.18 332.72C169.22 356.44 136.53 379.14 103.23 400.94C80.61 415.75 57.86 430.29 30.42 435.07C26.15 435.82 24.28 440.98 23.89 445.1C23.5017 449.251 26.0486 449.276 28.6143 449.3C29.6832 449.311 30.7554 449.321 31.62 449.63C35.2464 450.922 39.0053 451.677 42.767 452.432L42.7673 452.433C47.5944 453.402 52.4264 454.372 56.99 456.48C61.4744 458.552 66.0102 460.525 70.5459 462.498L70.5475 462.499C84.8848 468.737 99.221 474.974 111.93 484.31C132.54 499.45 150.49 517.29 165.89 537.79C181.26 558.25 189.84 581.56 195.49 606.06C196.62 610.99 198.39 614.84 202.93 614.61C207.21 614.396 206.687 610.599 206.279 607.633C206.191 606.996 206.108 606.397 206.08 605.88C205.788 600.567 205.296 595.256 204.803 589.945C203.776 578.874 202.749 567.8 203.54 556.69C204.591 541.91 204.831 527.095 205.07 512.277C205.468 487.634 205.866 462.98 210 438.45C211.31 430.68 211.436 422.786 211.564 414.825C211.702 406.198 211.841 397.492 213.49 388.78C216.15 374.76 216.65 359.7 216.78 345.1C216.86 336.61 219.92 331.35 226.34 326.38C239.867 315.905 253.22 305.2 266.573 294.496L266.576 294.494L266.579 294.492C272.957 289.379 279.334 284.267 285.73 279.18C292.032 274.173 298.14 268.925 304.241 263.682L304.242 263.681C309.874 258.841 315.501 254.007 321.27 249.37C336.248 237.329 350.542 224.53 364.833 211.733L364.834 211.732C375.207 202.443 385.578 193.156 396.21 184.16C400.02 180.94 404.69 176.51 399.49 171.79C395.982 168.607 393.697 171.42 391.551 174.062C390.858 174.915 390.18 175.75 389.48 176.36C384.213 180.956 379 185.615 373.786 190.275L373.784 190.276L373.781 190.279C366.109 197.136 358.436 203.994 350.59 210.65C342.901 217.169 335.252 223.732 327.603 230.296L327.602 230.297C311.654 243.983 295.705 257.67 279.39 270.95C261.61 285.42 243.64 299.63 225.63 313.79C223.81 315.22 220.94 316.98 219.18 316.46C217.08 315.837 217.271 313.787 217.456 311.799C217.52 311.108 217.584 310.424 217.55 309.81C217.325 305.782 218.448 301.94 219.571 298.095C220.949 293.379 222.327 288.659 221.22 283.59C218.924 273.082 221.418 262.667 223.797 252.734C224.422 250.124 225.04 247.547 225.56 245.01C226.706 239.407 227.612 233.74 228.518 228.063L228.518 228.063L228.518 228.063C230.302 216.901 232.091 205.701 235.73 194.87C238.872 185.518 241.289 175.925 243.708 166.329C245.522 159.128 247.338 151.924 249.46 144.82C255.23 125.5 261.2 106.24 268.32 87.31C271.22 79.6 273.75 71.39 275.63 63.18C276.39 59.86 276.55 56.39 272.18 55.58C271.983 55.5431 271.787 55.504 271.592 55.4651C269.299 55.008 267.132 54.5759 265.16 58.05C260.628 66.0396 255.86 73.8992 251.092 81.758C244.719 92.2637 238.346 102.768 232.54 113.58C214.9 146.41 197.51 179.42 181.37 213C179.151 217.616 176.814 222.194 174.476 226.773L174.475 226.774ZM152.68 503.37C146.48 501.1 140.99 498.2 141.73 490.22C142.12 486.02 139.38 485.48 136.31 485.49C126.46 485.54 120.2 481.29 118.86 471.14C118.35 467.26 116.3 466.53 112.84 467.58C107.518 469.199 107.451 469.131 102.976 464.626L102.88 464.53C108.152 465.255 110.337 462.121 112.539 458.963C113.95 456.939 115.368 454.905 117.61 453.87C118.72 453.36 119.69 448.01 116.91 446.21C114.278 444.506 113.445 445.995 112.31 448.021L112.31 448.021C112.027 448.528 111.724 449.068 111.37 449.6C108.288 454.227 103.226 455.507 98.1229 456.798L98.1225 456.798C95.395 457.488 92.6555 458.181 90.2 459.39C87.6862 460.628 85.3288 458.917 82.4367 456.818C80.8188 455.644 79.0335 454.349 76.96 453.38C78.9491 452.663 81.1248 452.726 83.1278 452.784C87.0456 452.898 90.3026 452.993 90.21 447.19C90.19 445.96 91.81 446.27 92.69 446.9L92.7479 446.941C95.8483 449.158 98.9222 451.355 100.88 445.74C102.338 441.562 99.8845 439.297 97.3268 436.934C97.007 436.639 96.6856 436.342 96.37 436.04C95.6121 435.312 94.2526 434.994 92.9056 434.679C90.1648 434.038 87.4755 433.41 90.01 429.36C92.5 425.38 99.2 426.24 102.81 428.38C107.64 431.25 112.2 431.29 117.14 430.75C119.22 430.52 121.56 429.8 121.57 427C121.58 424.31 119.34 423.02 117.32 423.02C111.89 423.02 107.07 421.62 101.39 418.28C102.164 418.071 102.773 417.872 103.274 417.709C104.139 417.427 104.685 417.249 105.21 417.3C110.736 417.795 110.952 414.528 111.154 411.477C111.267 409.78 111.375 408.149 112.39 407.27C115.188 404.852 116.558 407.053 117.983 409.341C119.403 411.623 120.879 413.993 123.88 411.95C128.245 408.983 126.483 406.022 124.742 403.094C124.141 402.085 123.544 401.08 123.2 400.08C125.496 398.204 127.207 399.235 128.963 400.293C129.593 400.673 130.229 401.056 130.9 401.31C133.71 402.37 137.83 402.31 136.69 398.19C134.856 391.568 138.78 389.162 142.601 386.819C143.425 386.313 144.244 385.811 145 385.27C159.39 374.963 173.879 364.793 188.423 354.584C194.001 350.668 199.588 346.747 205.18 342.81C207.52 346.12 206.94 349.9 206.4 353.13C202.732 375.151 201.946 397.382 201.161 419.57C200.611 435.127 200.061 450.663 198.52 466.09C196.794 483.36 196.815 500.552 196.836 517.712C196.855 532.556 196.873 547.376 195.76 562.2C195.63 563.88 195.36 565.55 193.72 567.79C192.457 558.075 187.028 550.574 181.609 543.086C176.391 535.876 171.182 528.679 169.71 519.53C169.16 516.13 166.53 514.78 163.56 514.49C158.98 514.05 156.82 510.93 154.79 507.48C156.36 504.94 154.92 503.94 152.68 503.35V503.37ZM77.8244 440.849C81.7614 442.378 85.7636 443.933 85.8299 435.09C84.0898 435.912 82.5308 436.649 81.0769 437.337C79.0634 438.289 77.2517 439.146 75.4399 440C76.2089 440.222 77.0153 440.535 77.8244 440.849Z" fill="black"/>
<path fill-rule="evenodd" clip-rule="evenodd" d="M697.46 353.966C697.34 350.918 697.22 347.869 697.22 344.84H697.21C697.7 308.19 695.55 271.85 686.05 236.22C685.274 233.31 684.546 230.389 683.817 227.469C680.724 215.072 677.639 202.708 671.01 191.36C661.38 174.88 644.96 168.95 633.63 179.22C627.91 184.41 622.93 190.63 620.22 197.97C610.34 224.74 602.45 252.36 602.63 280.85C602.699 291.956 602.459 303.072 602.22 314.19C601.62 342.024 601.02 369.878 605.25 397.66C606.731 407.358 608.754 416.859 610.78 426.374C611.491 429.711 612.202 433.05 612.89 436.4C616.89 455.85 623.79 473.6 635.13 489.7C642.13 499.64 659.72 498.94 667.28 489.21C673.63 481.042 677.219 471.85 680.879 462.477C681.749 460.248 682.624 458.008 683.54 455.77C690.985 437.578 692.581 418.757 694.175 399.958C694.918 391.209 695.659 382.464 696.99 373.79C697.985 367.31 697.723 360.638 697.46 353.966ZM612.04 286.303C611.15 295.74 610.26 305.174 608.87 314.55V314.54C608.87 315.743 608.822 316.954 608.775 318.165C608.667 320.918 608.559 323.67 609.01 326.33C609.184 327.363 609.02 328.633 608.852 329.925C608.404 333.377 607.935 336.987 613.85 336.66C620.39 336.3 624.8 332.81 624.13 324.85C623.695 319.699 623.854 314.501 624.012 309.306C624.072 307.329 624.132 305.353 624.16 303.38C624.166 303.027 624.162 302.664 624.159 302.299C624.131 299.434 624.101 296.426 628.51 296.47C632.87 296.51 634.87 298.9 634.87 303.29C634.86 306.14 635.06 309.04 635.64 311.82C639.76 331.6 641.75 332.99 661.68 330.49L661.798 330.475C664.361 330.159 666.972 329.837 667.07 333.54C667.082 333.995 667.12 334.443 667.157 334.882C667.358 337.264 667.536 339.365 663.49 340.86C643.08 348.4 639.81 354.35 641.93 374.86C641.958 375.125 641.992 375.408 642.027 375.702C642.398 378.796 642.932 383.247 638.34 383.53C634.48 383.77 631.12 380.27 631.52 376.01C631.912 371.909 630.668 368.238 629.416 364.542C628.399 361.542 627.377 358.525 627.22 355.25C626.785 346.144 618.186 347.153 612.463 347.825L612.25 347.85C606.08 348.57 608.02 355.56 609.51 358.29C614.19 366.889 614.27 376.044 614.35 385.247C614.402 391.166 614.454 397.106 615.73 402.93C616.761 407.638 617.714 412.354 618.666 417.06C622.959 438.292 627.214 459.334 638.33 478.66C641.71 484.55 647.12 486.29 651.93 487.31C657.02 488.39 661.19 483.76 664.02 478.81C670.31 467.82 674.61 456.28 676.78 443.75C677.876 437.414 679.374 431.145 680.873 424.877C684.229 410.836 687.585 396.798 686.41 382.01C686.227 379.749 686.595 377.453 686.964 375.149C687.22 373.55 687.476 371.948 687.55 370.35C687.727 366.582 688.275 362.779 688.824 358.975C690.511 347.284 692.199 335.579 683.1 324.82C681.4 322.82 681.94 318.82 684.04 316.88C686.437 314.652 686.368 312.176 686.298 309.67C686.272 308.757 686.247 307.841 686.34 306.93C687.702 293.822 685.029 281.27 682.355 268.709C681.18 263.187 680.004 257.663 679.17 252.09C676.15 231.87 670.28 212.83 660.46 195.05C657.85 190.31 654.21 185.26 647.84 185.02C641.04 184.76 637.67 189.28 634.06 194.69C626.705 205.719 623.854 217.949 620.963 230.355C620.336 233.045 619.707 235.744 619.03 238.44C615.065 254.232 613.552 270.273 612.04 286.303Z" fill="black"/>
<path fill-rule="evenodd" clip-rule="evenodd" d="M606.4 474.22C606.381 476.319 606.367 478.376 606.354 480.393C606.189 505.637 606.066 524.581 595.12 542C586.81 555.22 574.47 556.98 565.32 543.87C552.93 526.11 547.04 505.96 542.93 484.66C542.291 481.355 541.942 477.983 541.591 474.591C540.875 467.678 540.15 460.682 536.95 454C534.946 449.815 535.29 444.489 535.632 439.195C535.771 437.038 535.91 434.887 535.89 432.82C535.814 424.643 535.83 416.461 535.847 408.282L535.847 408.282C535.852 405.727 535.858 403.173 535.86 400.62C535.86 386.38 539.94 372.97 545.53 360.2C552.06 345.3 563.34 343.64 574.74 355.13C585.21 365.68 590.39 379.14 593.79 393.11C594.047 394.167 594.305 395.224 594.563 396.28C601.414 424.378 608.222 452.295 606.4 474.23V474.22ZM547.01 450.25L547.01 450.24C552.211 446.857 551.89 444.016 551.543 440.947L551.543 440.946C551.521 440.758 551.5 440.57 551.48 440.38C550.91 435.07 550.89 429.68 550.95 424.32C550.99 420.74 553.4 417.63 556.53 417.52C560.26 417.39 561.48 421.03 561.53 424.54C561.553 426.049 561.549 427.558 561.546 429.067C561.541 431.497 561.535 433.925 561.64 436.35C562.1 446.83 569.11 452.45 578.58 448.46C579.703 447.987 581.035 447.553 582.425 447.099C587.508 445.441 593.385 443.524 592.82 438.53C590.1 414.53 585.03 390.89 572.79 369.45C571.196 366.658 568.455 365.748 565.742 364.847C562.974 363.928 560.234 363.019 558.77 360.13C555.33 362.78 552.25 365.74 551.07 370.11C546.055 388.716 546.445 407.519 546.849 427.047C547.007 434.657 547.167 442.378 547.01 450.24L547.01 450.24V450.25ZM550.68 467.706C550.677 467.704 550.673 467.702 550.67 467.7H550.68C550.68 467.702 550.68 467.704 550.68 467.706ZM569.23 466.3C562.283 471.398 557.704 472.109 550.68 467.706C550.266 485.721 556.427 501.547 562.544 517.26C563.054 518.57 563.564 519.88 564.07 521.19C566.78 528.21 570.13 534.83 575.87 540.5C581.044 545.621 583.722 542.243 585.943 539.44C586.225 539.084 586.499 538.738 586.77 538.42C590.2 534.39 587.88 532.35 582.94 532.25C580.12 532.2 579.92 529.67 580.18 527.43C580.49 524.73 582.29 521.39 584.53 522.28C593.527 525.842 593.914 520.059 594.241 515.177C594.289 514.454 594.336 513.75 594.41 513.1C594.812 509.551 594.775 505.934 594.738 502.324C594.691 497.663 594.644 493.014 595.54 488.54C596.975 481.364 596.111 474.502 595.237 467.569C594.577 462.329 593.911 457.048 594.23 451.56C584.15 455.74 576.59 460.89 569.23 466.3Z" fill="black"/>
<path d="M136.93 449.68C136.84 453.01 133.97 454.04 131.92 454.34C129.04 454.76 126.51 453.14 126.31 449.61C126.14 446.53 127.75 444.97 130.73 445.08C133.79 445.2 136.05 446.65 136.92 449.68H136.93Z" fill="black"/>
<path d="M144.57 413.83C147.26 415.06 151.5 412.66 151.57 417.2C151.62 420.29 148.59 422.33 146.13 422.58C143.56 422.85 142.26 419.81 141.75 417.38C141.27 415.09 141.63 412.88 144.56 413.83H144.57Z" fill="black"/>
<path d="M176.41 445.01C173.17 444.3 170.53 443.34 170.13 439.97C169.76 436.77 171.87 435.63 174.64 435.44C177.75 435.24 180.37 435.92 180.48 439.75C180.57 442.74 178.46 443.95 176.41 445V445.01Z" fill="black"/>
<path d="M179.84 396.67C180.07 398.96 181.47 401.79 177.43 402.17C173.86 402.5 171.45 399.51 171.82 397.33C172.2 395.1 173.2 391.02 177.38 391.28C181.49 391.53 180.01 394.43 179.84 396.68V396.67Z" fill="black"/>
<path d="M136.45 472.37C137 475.49 136.54 477.68 133.06 477.61C130.37 477.55 129.55 475.55 129.39 473.38C129.2 470.74 130.08 468.34 133.07 467.97C136.66 467.53 136.99 469.95 136.44 472.37H136.45Z" fill="black"/>
<path d="M159 445.72C159.1 449.58 156.35 449.68 153.91 449.41C151.21 449.11 147.9 448.88 148.37 444.71C148.84 440.59 152.12 442.73 154.19 442.32C156.93 441.78 159.26 442.16 159 445.72Z" fill="black"/>
<path d="M146.98 471.03C148.14 474.74 148.93 478.15 144.91 480.36C143.51 481.13 141.99 480.73 141.73 478.96C141.13 474.94 143.15 472.49 146.97 471.03H146.98Z" fill="black"/>
<path d="M643.85 395.78C643.49 400.15 650.64 408.23 642.16 408.65C634.26 409.04 637.92 398.1 634.99 392.72C633.48 389.95 635.5 387.78 639.66 388.43C644.5 389.18 647.35 390.2 643.85 395.78Z" fill="black"/>
<path d="M634.65 289.44C634.68 292.82 632.25 294.02 629.13 294.13C624.58 294.28 624.28 291.17 624.3 287.66C624.32 284.47 625.84 283.13 628.84 283.23C632.59 283.36 634.89 285 634.65 289.44Z" fill="black"/>
<path d="M643.32 214.11C645.82 214.49 649.12 216.52 648.4 219.07C647.78 221.23 646.05 225.2 641.94 224.79C638 224.4 639.34 221.3 639.11 219.05C638.84 216.36 638.97 213.9 643.32 214.11Z" fill="black"/>
<path d="M640.58 237.7C639.66 241.38 637.21 241.93 634.78 242.31C631.93 242.76 631.09 241.06 631.31 238.59C631.56 235.77 634.03 233.67 635.88 233.59C637.48 233.52 639.21 236.41 640.57 237.69L640.58 237.7Z" fill="black"/>
<path d="M652.16 449.28C650.15 449.39 649.4 447.51 649.67 445.14C649.97 442.47 649.53 439.06 653.65 438.8C657.03 438.58 657.99 442.24 658.13 443.74C658.35 446.25 656.75 449.17 652.16 449.28Z" fill="black"/>
<path d="M662.4 466.86C660.13 465.69 656.92 464.76 657.32 461.4C657.65 458.69 660.6 457.93 662.96 457.75C665.86 457.53 667.63 459.22 667.41 462.25C667.2 465.07 665.49 466.64 662.4 466.86Z" fill="black"/>
<path d="M636.6 266.5C636.92 269.66 634.6 269.95 632.53 270.23C630.01 270.58 628.4 269.5 628.53 266.74C628.63 264.51 629.26 262.4 631.81 261.95C635.39 261.31 635 265.01 636.6 266.5Z" fill="black"/>
<path d="M653.08 200.22C652.64 202.47 652.98 205.14 649.99 205.02C647.19 204.9 645.66 203.12 645.79 200.15C645.89 197.76 646.8 196.15 649.48 196.23C652.28 196.31 652.61 198.45 653.08 200.22Z" fill="black"/>
<path d="M649.59 420.37C649.76 422.51 648.63 423.64 646.62 423.79C645.16 423.9 643.72 423.45 643.72 421.65C643.72 419.4 644.47 417.45 647.19 417.47C648.95 417.48 649.3 418.97 649.59 420.37Z" fill="black"/>
<path d="M559.51 390.54C557.41 390.58 554.78 391.17 555.09 387.75C555.35 384.81 556.79 381.52 559.55 381.18C562.43 380.83 564.3 384.21 564.69 386.79C565.22 390.29 562.07 390.38 559.51 390.54Z" fill="black"/>
<path d="M561.91 407.68C561.66 410.2 561.81 412.8 558.12 412.63C554.71 412.48 554.25 410.08 554.27 407.6C554.29 404.78 554.58 401.77 558.72 402.22C562.3 402.61 561.34 405.64 561.91 407.68Z" fill="black"/>
<path d="M572.15 493.62C572.27 497.2 572.69 500.3 568.77 499.57C565.75 499.01 562.06 497.54 562.29 493.99C562.47 491.24 565.67 489.64 568.65 489.5C572.36 489.32 572.24 492.11 572.15 493.61V493.62Z" fill="black"/>
<path d="M578.92 516.27C578.85 516.71 578.38 518.92 575.47 518.54C573.18 518.24 573.17 516.25 573.07 514.49C572.94 512.23 574.37 511.37 576.3 511.27C578.49 511.15 579.48 512.35 578.93 516.28L578.92 516.27Z" fill="black"/>
</svg>
